<?xml version="1.0" encoding="UTF-8"?>
<svg width="400" height="400" fill="none" version="1.1" viewBox="0 0 400 400" xmlns="http://www.w3.org/2000/svg">
 <g transform="matrix(.99898 0 0 .99898 -5.9388 -.49408)">
  <path d="m220.01 8.7653 101.96 37.112c8.955 3.2594 16.475 9.5698 21.24 17.823l54.254 93.97c4.765 8.253 6.47 17.921 4.815 27.306l-18.842 106.86c-1.655 9.385-6.564 17.887-13.864 24.013l-83.121 69.747c-7.301 6.125-16.526 9.483-26.056 9.483h-108.51c-9.53 0-18.755-3.358-26.055-9.483l-83.122-69.747c-7.3003-6.126-12.209-14.628-13.864-24.013l-18.842-106.86c-1.6548-9.385 0.0499-19.053 4.8149-27.306l54.254-93.97c4.765-8.2532 12.285-14.564 21.241-17.823l101.96-37.112c8.955-3.2594 18.772-3.2594 27.727 0z" fill="#fff" stroke="#492e98" stroke-width="6.9055"/>
  <path d="m23.812 246.34 7.6336 43.386c1.693 9.622 6.719 18.342 14.197 24.63l80.64 67.812c7.497 6.304 16.978 9.761 26.774 9.761h105.2c9.795 0 19.277-3.457 26.774-9.761l80.64-67.812c7.477-6.288 12.503-15.008 14.196-24.63l7.634-43.386z" clip-rule="evenodd" fill="#f1f0ff" fill-rule="evenodd"/>
  <path d="m81.664 66.152c-0.9529 1.1698-1.8162 2.4197-2.5788 3.7407l-3.1091 5.3851 3.9869 2.3018 3.1091-5.3851c0.6392-1.1072 1.3627-2.1547 2.1612-3.1349zm-13.037 21.854 3.9869 2.3018-6.2182 10.77-3.9869-2.3014zm-13.567 23.499 3.9869 2.302-6.2182 10.77-3.9869-2.302zm-13.567 23.499 3.9869 2.302-6.2183 10.77-3.9868-2.302zm-13.567 23.499 3.9868 2.301-3.1091 5.386c-0.6392 1.107-1.1846 2.257-1.6343 3.439l-4.3026-1.638c0.5366-1.41 1.1874-2.782 1.9501-4.103zm-6.9149 20.012 4.6032-0.067c0.0184 1.265 0.1375 2.532 0.3595 3.791l1.0798 6.124-4.5338 0.799-1.0797-6.124c-0.2649-1.502-0.407-3.014-0.429-4.523zm4.061 25.122 4.5337-0.8 2.1595 12.248-4.5337 0.799zm4.7117 26.721 2.1596 12.248 4.5337-0.8-2.1596-12.247zm4.7118 26.722 4.5337-0.799 2.1596 12.247-4.5337 0.8zm4.7118 26.722 1.0798 6.124c0.2648 1.502 0.6485 2.972 1.1439 4.397l4.3484-1.512c-0.4151-1.194-0.7366-2.426-0.9586-3.685l-1.0798-6.123zm7.5668 19.775c0.9866 1.142 2.0676 2.209 3.2361 3.19l4.7634 3.997 2.9592-3.527-4.7635-3.997c-0.9793-0.822-1.8853-1.716-2.7119-2.673zm19.258 16.634 2.9592-3.527 9.5268 7.994-2.9591 3.527zm20.786 17.441 2.9591-3.526 9.5269 7.994-2.9592 3.526zm20.786 17.442 2.959-3.527 9.527 7.994-2.959 3.527zm20.786 17.441 2.959-3.526 4.764 3.997c0.979 0.821 2.017 1.558 3.103 2.206l-2.36 3.953c-1.295-0.773-2.534-1.652-3.703-2.633zm125.36 10.648v-4.603h6.218c1.278 0 2.547-0.103 3.795-0.305l0.734 4.545c-1.49 0.241-3.004 0.363-4.529 0.363zm20.789-4.018-2.36-3.953c1.086-0.648 2.124-1.385 3.103-2.206l4.764-3.997 2.959 3.526-4.764 3.997c-1.168 0.981-2.407 1.86-3.702 2.633zm19.725-16.077-2.959-3.527 9.527-7.994 2.959 3.527zm20.786-17.442-2.959-3.526 9.526-7.994 2.96 3.526zm20.786-17.441-2.96-3.527 9.527-7.994 2.959 3.527zm20.785-17.441-2.959-3.527 4.764-3.997c0.979-0.822 1.885-1.716 2.712-2.673l3.483 3.01c-0.987 1.142-2.068 2.209-3.236 3.19zm13.343-16.441-4.348-1.512c0.415-1.194 0.736-2.426 0.958-3.685l1.08-6.123 4.534 0.799-1.08 6.124c-0.265 1.502-0.649 2.972-1.144 4.397zm4.776-24.995-4.534-0.8 2.16-12.247 4.534 0.799zm4.712-26.722-4.534-0.8 2.16-12.247 4.533 0.799zm4.711-26.722-4.533-0.799 2.159-12.248 4.534 0.8zm4.712-26.722-4.533-0.799 1.079-6.124c0.222-1.259 0.341-2.526 0.36-3.791l4.603 0.067c-0.022 1.509-0.164 3.021-0.429 4.523zm-0.347-21.171-4.302 1.638c-0.45-1.182-0.995-2.332-1.635-3.439l-3.109-5.386 3.987-2.301 3.109 5.385c0.763 1.321 1.414 2.693 1.95 4.103zm-12.408-22.217-3.987 2.302-6.218-10.77 3.987-2.302zm-13.567-23.499-3.987 2.302-6.218-10.77 3.987-2.302zm-13.567-23.498-3.987 2.3014-6.218-10.77 3.987-2.3018zm-13.567-23.499-3.987 2.3018-3.109-5.3851c-0.639-1.1072-1.362-2.1547-2.161-3.1349l3.569-2.9076c0.953 1.1698 1.817 2.4197 2.579 3.7407zm-13.874-15.995-2.243 4.0199c-1.104-0.6162-2.262-1.1468-3.463-1.584l-5.843-2.1268 1.574-4.326 5.844 2.1268c1.433 0.5217 2.814 1.1548 4.131 1.8901zm-23.786-9.0437-1.574 4.326-11.687-4.2535 1.575-4.3261zm-25.498-9.2804-1.574 4.326-11.686-4.2535 1.574-4.326zm-25.497-9.2804-1.575 4.326-11.686-4.2535 1.574-4.326zm-25.498-9.2804-1.574 4.326-5.844-2.1267c-1.201-0.4373-2.428-0.7747-3.67-1.0123l0.865-4.5216c1.482 0.2835 2.947 0.6862 4.38 1.2078zm-20.909-3.3346 0.865 4.5216c-1.242 0.2376-2.469 0.575-3.671 1.0123l-5.843 2.1267-1.574-4.326 5.843-2.1268c1.433-0.5216 2.898-0.9243 4.38-1.2078zm-24.035 8.3615 1.575 4.326-11.687 4.2535-1.574-4.326zm-25.497 9.2804 1.574 4.326-11.686 4.2535-1.575-4.326zm-25.498 9.2803 1.575 4.3261-11.687 4.2535-1.574-4.326zm-25.498 9.2804 1.5746 4.326-5.8433 2.1268c-1.2013 0.4372-2.3585 0.9678-3.4625 1.584l-2.2437-4.0199c1.3175-0.7353 2.6984-1.3684 4.1317-1.8901zm139.22 327.92v-4.603h-12.436v4.603zm-27.134 0v-4.603h-12.436v4.603zm-27.134 0v-4.603h-12.436v4.603zm-27.134 0v-4.603h-6.218c-1.279 0-2.547-0.103-3.796-0.305l-0.733 4.545c1.489 0.241 3.004 0.363 4.529 0.363z" clip-rule="evenodd" fill="#ff4849" fill-rule="evenodd"/>
 </g>
</svg>
