<?xml version="1.0" encoding="UTF-8"?>
<svg width="400" height="400" fill="none" version="1.1" viewBox="0 0 400 400" xmlns="http://www.w3.org/2000/svg">
 <defs>
  <mask id="mask4" maskUnits="userSpaceOnUse">
   <path d="m141 38.568c14.382 2.7813 29.245-1.2012 40.31-10.801 15.314-13.286 38.068-13.286 53.382 0 11.065 9.5998 25.928 13.582 40.31 10.801 19.906-3.8493 39.612 7.5279 46.231 26.691 4.782 13.846 15.663 24.726 29.509 29.509 19.163 6.6188 30.54 26.325 26.691 46.231-2.781 14.382 1.201 29.245 10.801 40.31 13.286 15.314 13.286 38.068 0 53.382-9.6 11.065-13.582 25.928-10.801 40.31 3.849 19.906-7.528 39.612-26.691 46.231-13.846 4.782-24.727 15.663-29.509 29.509-6.619 19.163-26.325 30.54-46.231 26.691-14.382-2.781-29.245 1.201-40.31 10.801-15.314 13.286-38.068 13.286-53.382 0-11.065-9.6-25.928-13.582-40.31-10.801-19.906 3.849-39.612-7.528-46.231-26.691-4.7825-13.846-15.663-24.727-29.509-29.509-19.163-6.619-30.54-26.325-26.691-46.231 2.7813-14.382-1.2012-29.245-10.801-40.31-13.286-15.314-13.286-38.068 0-53.382 9.5998-11.065 13.582-25.928 10.801-40.31-3.8493-19.906 7.5279-39.612 26.691-46.231 13.846-4.7825 24.726-15.663 29.509-29.509 6.6188-19.163 26.325-30.54 46.231-26.691z" fill="#fff" stroke="#492e98" stroke-width="6.9639"/>
  </mask>
 </defs>
 <g transform="matrix(1.0327 0 0 1.0327 -14.802 -14.802)">
  <path d="m141 38.568c14.382 2.7813 29.245-1.2012 40.31-10.801 15.314-13.286 38.068-13.286 53.382 0 11.065 9.5998 25.928 13.582 40.31 10.801 19.906-3.8493 39.612 7.5279 46.231 26.691 4.782 13.846 15.663 24.726 29.509 29.509 19.163 6.6188 30.54 26.325 26.691 46.231-2.781 14.382 1.201 29.245 10.801 40.31 13.286 15.314 13.286 38.068 0 53.382-9.6 11.065-13.582 25.928-10.801 40.31 3.849 19.906-7.528 39.612-26.691 46.231-13.846 4.782-24.727 15.663-29.509 29.509-6.619 19.163-26.325 30.54-46.231 26.691-14.382-2.781-29.245 1.201-40.31 10.801-15.314 13.286-38.068 13.286-53.382 0-11.065-9.6-25.928-13.582-40.31-10.801-19.906 3.849-39.612-7.528-46.231-26.691-4.7825-13.846-15.663-24.727-29.509-29.509-19.163-6.619-30.54-26.325-26.691-46.231 2.7813-14.382-1.2012-29.245-10.801-40.31-13.286-15.314-13.286-38.068 0-53.382 9.5998-11.065 13.582-25.928 10.801-40.31-3.8493-19.906 7.5279-39.612 26.691-46.231 13.846-4.7825 24.726-15.663 29.509-29.509 6.6188-19.163 26.325-30.54 46.231-26.691z" fill="#fff" stroke="#492e98" stroke-width="6.9639"/>
  <path d="m208.01 757.43c-11.158 0-22.462-0.363-33.62-1.016l28.802-473.09c3.26 0.218 6.593 0.218 9.854 0l29.707 473.06c-11.521 0.725-23.186 1.088-34.707 1.088zm-101.91-9.5c-22.57-4.278-45.104-10.007-66.949-17.114l145.89-450.9c2.862 0.943 5.833 1.668 8.804 2.248zm204.87-0.218-88.686-465.59c2.97-0.58 5.905-1.342 8.767-2.248l146.87 450.61c-21.845 7.143-44.379 12.908-66.949 17.222zm-336.05-42.276c-20.65-9.717-40.938-20.885-60.283-33.14l253.6-400.29c2.681 1.704 5.471 3.227 8.297 4.568l-201.61 428.9zm467.05-0.399-202.26-428.61c2.754-1.305 5.435-2.791 8.007-4.423l254.65 399.64c-19.346 12.364-39.67 23.568-60.429 33.394zm-583.02-73.241c-17.535-14.504-34.345-30.276-49.995-46.918l344.71-325.02c2.21 2.357 4.601 4.569 7.028 6.599l-301.74 365.3zm698.66-0.435-301.96-365.15c2.355-1.922 4.601-4.061 6.702-6.309l345.51 324.18c-15.723 16.751-32.605 32.669-50.248 47.281zm-792.56-99.42c-13.44-18.455-25.903-37.962-36.952-57.976l414.45-229.37c1.521 2.755 3.224 5.439 5.072 7.94zm886.43-0.689-382.93-278.9c1.811-2.465 3.478-5.076 4.963-7.832l414.96 228.5c-11.049 20.087-23.475 39.703-36.952 58.23zm-952.87-119.76c-8.477-21.356-15.687-43.473-21.411-65.699l458.65-118.13c0.76 2.937 1.702 5.838 2.825 8.702zm1019.3-1.087-440.5-174.08c1.159-2.901 2.137-5.91 2.898-8.919l458.83 117.4c-5.688 22.19-12.825 44.271-21.229 65.591zm-1053.7-132.2c-2.862-22.589-4.348-45.649-4.384-68.491l473.57-0.907c0 3.227 0.218 6.454 0.616 9.609zm1087.7-1.196-469.95-58.666c0.398-3.191 0.615-6.454 0.615-9.717l473.57-1.269v1.269c0 22.806-1.413 45.794-4.239 68.383zm-617.94-77.883-470.02-57.795c2.79-22.842 7.065-45.685 12.716-67.911l459.01 116.68c-0.725 2.901-1.305 5.946-1.667 8.992zm147.96-0.471c-0.398-3.082-0.978-6.164-1.775-9.137l458.36-119.25c5.76 22.154 10.18 44.923 13.114 67.693l-469.7 60.732zm-143.43-17.404-440.71-173.53c8.405-21.356 18.259-42.386 29.272-62.509l415.36 227.66c-1.485 2.683-2.789 5.511-3.913 8.375zm138.79-0.471c-1.123-2.828-2.463-5.62-3.985-8.34l414.09-230.02c11.122 20.087 21.084 41.008 29.598 62.255zm-129.8-15.954-383.76-277.74c13.368-18.491 28.041-36.33 43.655-53.081l346.16 323.49c-2.21 2.357-4.239 4.823-6.05 7.361zm120.71-0.399c-1.812-2.501-3.84-4.894-5.978-7.179l344.06-325.7c15.759 16.679 30.577 34.481 44.09 52.937zm-107.67-13.524-303.26-364.03c17.571-14.648 36.264-28.353 55.538-40.717l255.23 399.27c-2.608 1.668-5.144 3.517-7.499 5.475zm94.845-0.072c-2.536-2.103-5.217-4.025-7.934-5.729l253.13-400.61c19.201 12.146 37.858 25.634 55.465 40.137zm-79.231-9.935-203.09-428.21c20.759-9.862 42.314-18.491 64.051-25.634l147.59 450.4c-2.862 0.942-5.724 2.103-8.55 3.444zm63.037-0.326c-2.681-1.269-5.434-2.357-8.26-3.263l144.77-451.3c21.954 7.07 43.691 15.627 64.558 25.416zm-45.72-5.403-89.483-465.44c22.353-4.315 45.249-7.252 68.036-8.738l30.975 472.95c-3.224 0.217-6.412 0.616-9.528 1.232zm28.548-0.108c-3.079-0.581-6.231-0.979-9.347-1.161l27.86-473.13c22.823 1.342 45.792 4.133 68.253 8.339l-86.73 465.99z" fill="#cebaf1" mask="url(#mask4)" opacity=".05"/>
  <path d="m127.54 347c-0.146 0-0.278-0.051-0.396-0.154-0.102-0.117-0.154-0.249-0.154-0.396v-14.3c0-0.161 0.052-0.293 0.154-0.396 0.118-0.103 0.25-0.154 0.396-0.154h2.376c0.25 0 0.433 0.066 0.55 0.198 0.118 0.117 0.191 0.213 0.22 0.286l3.872 6.93 3.872-6.93c0.044-0.073 0.118-0.169 0.22-0.286 0.118-0.132 0.301-0.198 0.55-0.198h2.354c0.162 0 0.294 0.051 0.396 0.154 0.118 0.103 0.176 0.235 0.176 0.396v14.3c0 0.147-0.058 0.279-0.176 0.396-0.102 0.103-0.234 0.154-0.396 0.154h-2.618c-0.161 0-0.3-0.051-0.418-0.154-0.102-0.117-0.154-0.249-0.154-0.396v-8.25l-2.464 4.598c-0.073 0.132-0.168 0.249-0.286 0.352-0.117 0.103-0.278 0.154-0.484 0.154h-1.144c-0.205 0-0.366-0.051-0.484-0.154-0.117-0.103-0.212-0.22-0.286-0.352l-2.486-4.598v8.25c0 0.147-0.051 0.279-0.154 0.396-0.102 0.103-0.234 0.154-0.396 0.154zm18.219 0c-0.161 0-0.293-0.051-0.396-0.154-0.103-0.117-0.154-0.249-0.154-0.396v-14.3c0-0.161 0.051-0.293 0.154-0.396s0.235-0.154 0.396-0.154h2.948c0.161 0 0.293 0.051 0.396 0.154 0.117 0.103 0.176 0.235 0.176 0.396v14.3c0 0.147-0.059 0.279-0.176 0.396-0.103 0.103-0.235 0.154-0.396 0.154zm12.897 0.22c-1.379 0-2.567-0.227-3.564-0.682s-1.775-1.122-2.332-2.002c-0.543-0.88-0.843-1.973-0.902-3.278-0.015-0.601-0.022-1.247-0.022-1.936s7e-3 -1.349 0.022-1.98c0.059-1.276 0.367-2.361 0.924-3.256s1.335-1.569 2.332-2.024 2.178-0.682 3.542-0.682c0.968 0 1.863 0.125 2.684 0.374 0.821 0.235 1.54 0.587 2.156 1.056 0.616 0.455 1.093 1.012 1.43 1.672 0.352 0.645 0.535 1.379 0.55 2.2 0.015 0.132-0.029 0.242-0.132 0.33-0.088 0.088-0.198 0.132-0.33 0.132h-2.97c-0.191 0-0.337-0.037-0.44-0.11-0.103-0.088-0.191-0.242-0.264-0.462-0.205-0.777-0.543-1.305-1.012-1.584-0.455-0.293-1.019-0.44-1.694-0.44-0.807 0-1.445 0.227-1.914 0.682-0.469 0.44-0.726 1.181-0.77 2.222-0.044 1.203-0.044 2.435 0 3.696 0.044 1.041 0.301 1.789 0.77 2.244 0.469 0.44 1.107 0.66 1.914 0.66 0.675 0 1.247-0.147 1.716-0.44s0.799-0.821 0.99-1.584c0.059-0.22 0.139-0.367 0.242-0.44 0.117-0.088 0.271-0.132 0.462-0.132h2.97c0.132 0 0.242 0.044 0.33 0.132 0.103 0.088 0.147 0.198 0.132 0.33-0.015 0.821-0.198 1.562-0.55 2.222-0.337 0.645-0.814 1.203-1.43 1.672-0.616 0.455-1.335 0.807-2.156 1.056-0.821 0.235-1.716 0.352-2.684 0.352zm9.683-0.22c-0.161 0-0.293-0.051-0.396-0.154-0.103-0.117-0.154-0.249-0.154-0.396v-14.3c0-0.161 0.051-0.293 0.154-0.396s0.235-0.154 0.396-0.154h5.984c1.907 0 3.403 0.44 4.488 1.32 1.085 0.865 1.628 2.097 1.628 3.696 0 1.041-0.249 1.921-0.748 2.64s-1.159 1.261-1.98 1.628l3.014 5.412c0.044 0.088 0.066 0.169 0.066 0.242 0 0.117-0.051 0.227-0.154 0.33-0.088 0.088-0.191 0.132-0.308 0.132h-2.926c-0.279 0-0.484-0.066-0.616-0.198-0.132-0.147-0.227-0.279-0.286-0.396l-2.508-4.84h-2.244v4.884c0 0.147-0.059 0.279-0.176 0.396-0.103 0.103-0.235 0.154-0.396 0.154zm3.41-8.558h2.53c0.689 0 1.203-0.169 1.54-0.506 0.352-0.337 0.528-0.792 0.528-1.364s-0.169-1.034-0.506-1.386c-0.323-0.352-0.843-0.528-1.562-0.528h-2.53zm17.479 8.778c-1.35 0-2.523-0.22-3.52-0.66-0.998-0.44-1.775-1.1-2.332-1.98-0.558-0.895-0.866-2.009-0.924-3.344-0.015-0.631-0.022-1.261-0.022-1.892 0-0.645 7e-3 -1.283 0.022-1.914 0.058-1.32 0.366-2.427 0.924-3.322 0.572-0.909 1.356-1.591 2.354-2.046 1.012-0.455 2.178-0.682 3.498-0.682 1.334 0 2.5 0.227 3.498 0.682 0.997 0.455 1.782 1.137 2.354 2.046 0.572 0.895 0.88 2.002 0.924 3.322 0.029 0.631 0.044 1.269 0.044 1.914 0 0.631-0.015 1.261-0.044 1.892-0.044 1.335-0.352 2.449-0.924 3.344-0.558 0.88-1.335 1.54-2.332 1.98-0.998 0.44-2.171 0.66-3.52 0.66zm0-3.168c0.777 0 1.408-0.235 1.892-0.704 0.498-0.469 0.762-1.217 0.792-2.244 0.029-0.645 0.044-1.254 0.044-1.826s-0.015-1.166-0.044-1.782c-0.03-0.689-0.162-1.247-0.396-1.672-0.22-0.44-0.528-0.763-0.924-0.968s-0.851-0.308-1.364-0.308c-0.499 0-0.946 0.103-1.342 0.308s-0.712 0.528-0.946 0.968c-0.235 0.425-0.367 0.983-0.396 1.672-0.015 0.616-0.022 1.21-0.022 1.782s7e-3 1.181 0.022 1.826c0.044 1.027 0.308 1.775 0.792 2.244 0.498 0.469 1.129 0.704 1.892 0.704zm14.603 2.948c-0.161 0-0.293-0.051-0.396-0.154-0.102-0.117-0.154-0.249-0.154-0.396v-14.3c0-0.161 0.052-0.293 0.154-0.396 0.103-0.103 0.235-0.154 0.396-0.154h5.72c1.438 0 2.662 0.235 3.674 0.704 1.012 0.455 1.79 1.129 2.332 2.024 0.543 0.88 0.836 1.973 0.88 3.278 0.015 0.645 0.022 1.21 0.022 1.694s-7e-3 1.041-0.022 1.672c-0.058 1.364-0.352 2.493-0.88 3.388-0.513 0.895-1.268 1.562-2.266 2.002-0.982 0.425-2.192 0.638-3.63 0.638zm3.41-3.168h2.31c0.631 0 1.152-0.095 1.562-0.286 0.426-0.205 0.741-0.521 0.946-0.946 0.22-0.425 0.338-0.983 0.352-1.672 0.03-0.425 0.044-0.807 0.044-1.144 0.015-0.337 0.015-0.675 0-1.012 0-0.337-0.014-0.711-0.044-1.122-0.029-0.997-0.293-1.723-0.792-2.178-0.484-0.469-1.21-0.704-2.178-0.704h-2.2zm12.338 3.168c-0.161 0-0.293-0.051-0.396-0.154-0.102-0.117-0.154-0.249-0.154-0.396v-14.3c0-0.161 0.052-0.293 0.154-0.396 0.103-0.103 0.235-0.154 0.396-0.154h10.274c0.162 0 0.294 0.051 0.396 0.154 0.103 0.103 0.154 0.235 0.154 0.396v2.068c0 0.161-0.051 0.293-0.154 0.396-0.102 0.103-0.234 0.154-0.396 0.154h-7.018v2.97h6.534c0.162 0 0.294 0.059 0.396 0.176 0.103 0.103 0.154 0.235 0.154 0.396v1.914c0 0.147-0.051 0.279-0.154 0.396-0.102 0.103-0.234 0.154-0.396 0.154h-6.534v3.058h7.194c0.162 0 0.294 0.051 0.396 0.154 0.103 0.103 0.154 0.235 0.154 0.396v2.068c0 0.147-0.051 0.279-0.154 0.396-0.102 0.103-0.234 0.154-0.396 0.154zm19.73 0.22c-1.393 0-2.596-0.227-3.608-0.682-0.997-0.469-1.774-1.144-2.332-2.024-0.542-0.895-0.843-1.98-0.902-3.256-0.014-0.631-0.022-1.298-0.022-2.002 0-0.719 8e-3 -1.401 0.022-2.046 0.059-1.247 0.367-2.303 0.924-3.168 0.558-0.865 1.342-1.525 2.354-1.98s2.2-0.682 3.564-0.682c1.1 0 2.076 0.139 2.926 0.418 0.851 0.264 1.562 0.623 2.134 1.078 0.587 0.455 1.034 0.953 1.342 1.496s0.47 1.078 0.484 1.606c0 0.132-0.051 0.242-0.154 0.33-0.088 0.088-0.198 0.132-0.33 0.132h-3.212c-0.161 0-0.286-0.022-0.374-0.066-0.073-0.059-0.139-0.139-0.198-0.242-0.102-0.22-0.256-0.447-0.462-0.682-0.19-0.249-0.462-0.462-0.814-0.638-0.337-0.176-0.784-0.264-1.342-0.264-0.821 0-1.474 0.22-1.958 0.66s-0.748 1.144-0.792 2.112c-0.044 1.261-0.044 2.537 0 3.828 0.044 1.027 0.316 1.767 0.814 2.222 0.499 0.455 1.166 0.682 2.002 0.682 0.543 0 1.027-0.095 1.452-0.286 0.44-0.191 0.785-0.484 1.034-0.88 0.25-0.411 0.374-0.931 0.374-1.562v-0.418h-2.068c-0.161 0-0.293-0.051-0.396-0.154-0.102-0.117-0.154-0.257-0.154-0.418v-1.628c0-0.161 0.052-0.293 0.154-0.396 0.103-0.117 0.235-0.176 0.396-0.176h5.544c0.162 0 0.294 0.059 0.396 0.176 0.103 0.103 0.154 0.235 0.154 0.396v2.508c0 1.261-0.286 2.339-0.858 3.234s-1.386 1.584-2.442 2.068c-1.041 0.469-2.258 0.704-3.652 0.704zm10.026-0.22c-0.161 0-0.293-0.051-0.396-0.154-0.102-0.117-0.154-0.249-0.154-0.396v-14.3c0-0.161 0.052-0.293 0.154-0.396 0.103-0.103 0.235-0.154 0.396-0.154h5.984c1.907 0 3.403 0.44 4.488 1.32 1.086 0.865 1.628 2.097 1.628 3.696 0 1.041-0.249 1.921-0.748 2.64-0.498 0.719-1.158 1.261-1.98 1.628l3.014 5.412c0.044 0.088 0.066 0.169 0.066 0.242 0 0.117-0.051 0.227-0.154 0.33-0.088 0.088-0.19 0.132-0.308 0.132h-2.926c-0.278 0-0.484-0.066-0.616-0.198-0.132-0.147-0.227-0.279-0.286-0.396l-2.508-4.84h-2.244v4.884c0 0.147-0.058 0.279-0.176 0.396-0.102 0.103-0.234 0.154-0.396 0.154zm3.41-8.558h2.53c0.69 0 1.203-0.169 1.54-0.506 0.352-0.337 0.528-0.792 0.528-1.364s-0.168-1.034-0.506-1.386c-0.322-0.352-0.843-0.528-1.562-0.528h-2.53zm11.801 8.558c-0.161 0-0.293-0.051-0.396-0.154-0.103-0.117-0.154-0.249-0.154-0.396v-14.3c0-0.161 0.051-0.293 0.154-0.396s0.235-0.154 0.396-0.154h10.274c0.161 0 0.293 0.051 0.396 0.154s0.154 0.235 0.154 0.396v2.068c0 0.161-0.051 0.293-0.154 0.396s-0.235 0.154-0.396 0.154h-7.018v2.97h6.534c0.161 0 0.293 0.059 0.396 0.176 0.103 0.103 0.154 0.235 0.154 0.396v1.914c0 0.147-0.051 0.279-0.154 0.396-0.103 0.103-0.235 0.154-0.396 0.154h-6.534v3.058h7.194c0.161 0 0.293 0.051 0.396 0.154s0.154 0.235 0.154 0.396v2.068c0 0.147-0.051 0.279-0.154 0.396-0.103 0.103-0.235 0.154-0.396 0.154zm14.051 0c-0.161 0-0.293-0.051-0.396-0.154-0.103-0.117-0.154-0.249-0.154-0.396v-14.3c0-0.161 0.051-0.293 0.154-0.396s0.235-0.154 0.396-0.154h10.274c0.161 0 0.293 0.051 0.396 0.154s0.154 0.235 0.154 0.396v2.068c0 0.161-0.051 0.293-0.154 0.396s-0.235 0.154-0.396 0.154h-7.018v2.97h6.534c0.161 0 0.293 0.059 0.396 0.176 0.103 0.103 0.154 0.235 0.154 0.396v1.914c0 0.147-0.051 0.279-0.154 0.396-0.103 0.103-0.235 0.154-0.396 0.154h-6.534v3.058h7.194c0.161 0 0.293 0.051 0.396 0.154s0.154 0.235 0.154 0.396v2.068c0 0.147-0.051 0.279-0.154 0.396-0.103 0.103-0.235 0.154-0.396 0.154z" fill="#492e98"/>
 </g>
</svg>
