<?xml version="1.0" encoding="UTF-8"?>
<svg width="400" height="400" fill="none" version="1.1" viewBox="0 0 400 400" xmlns="http://www.w3.org/2000/svg">
 <g transform="matrix(1.0091 0 0 1.0091 -.25476 -.13142)">
  <path d="m349.42 83.265-126.8-73.208c-14.956-8.6348-33.383-8.6348-48.339 0l-126.8 73.208c-14.956 8.6348-24.169 24.592-24.169 41.862v146.42c0 17.269 9.2132 33.227 24.169 41.862l126.8 73.208c14.956 8.634 33.383 8.634 48.339 0l126.8-73.208c14.956-8.635 24.169-24.592 24.169-41.862v-146.42c0-17.27-9.213-33.228-24.169-41.862z" fill="#fff" stroke="#492e98" stroke-width="6.9055"/>
  <path d="m26.796 243.32v28.689c0 15.497 8.2676 29.817 21.688 37.565l128.33 74.09c13.421 7.749 29.956 7.749 43.377 0l128.33-74.09c13.421-7.748 21.688-22.068 21.688-37.565v-28.689z" clip-rule="evenodd" fill="#ecfeed" fill-rule="evenodd"/>
  <path d="m35.919 119.56c-0.1805 1.409-0.2729 2.839-0.2729 4.282v5.196h4.6036v-5.196c0-1.246 0.0798-2.481 0.2357-3.697zm-0.2729 148.39h4.6036v5.195c0 1.247 0.0798 2.482 0.2357 3.698l-4.5664 0.585c-0.1805-1.41-0.2729-2.839-0.2729-4.283zm2.6058 18.183 4.247-1.776c0.9549 2.282 2.1977 4.435 3.6973 6.403l-3.6621 2.79c-1.7368-2.28-3.1762-4.773-4.2822-7.417zm10.655 13.79 2.7898-3.662c0.9756 0.743 2.0048 1.43 3.0844 2.053l4.4993 2.598-2.3018 3.987-4.4994-2.598c-1.2497-0.722-2.4419-1.517-3.5723-2.378zm17.544 10.444 2.3018-3.986 8.9987 5.195-2.3018 3.987zm18.471 10.665 2.3018-3.987 8.9988 5.195-2.3019 3.987zm18.471 10.664 2.302-3.987 8.999 5.196-2.302 3.986zm18.471 10.664 2.302-3.987 8.999 5.196-2.302 3.987zm18.472 10.665 2.301-3.987 8.999 5.195-2.302 3.987zm18.471 10.664 2.301-3.987 8.999 5.195-2.302 3.987zm18.471 10.664 2.302-3.987 4.499 2.598c1.079 0.623 2.189 1.172 3.32 1.645l-1.777 4.247c-1.311-0.549-2.595-1.183-3.845-1.905zm17.05 6.835 0.585-4.566c2.454 0.314 4.94 0.314 7.394 0l0.585 4.566c-2.843 0.364-5.721 0.364-8.564 0zm17.27-2.332-1.777-4.247c1.131-0.473 2.24-1.022 3.32-1.645l4.499-2.598 2.302 3.987-4.499 2.598c-1.25 0.722-2.534 1.356-3.845 1.905zm17.817-9.972-2.302-3.987 8.998-5.195 2.302 3.987zm18.471-10.664-2.302-3.987 8.999-5.195 2.301 3.987zm18.471-10.664-2.302-3.987 8.999-5.196 2.302 3.987zm18.471-10.665-2.302-3.986 8.999-5.196 2.302 3.987zm18.471-10.664-2.302-3.987 8.999-5.195 2.302 3.987zm18.471-10.664-2.302-3.987 8.999-5.195 2.302 3.986zm18.471-10.664-2.302-3.987 4.5-2.598c1.079-0.623 2.109-1.31 3.084-2.053l2.79 3.662c-1.131 0.861-2.323 1.656-3.572 2.378zm14.444-11.349-3.662-2.79c1.5-1.968 2.743-4.121 3.698-6.403l4.247 1.776c-1.106 2.644-2.546 5.137-4.283 7.417zm6.888-164.51h-4.603v-5.196c0-1.246-0.08-2.481-0.236-3.697l4.567-0.585c0.18 1.409 0.272 2.839 0.272 4.282zm-2.605-18.183-4.247 1.776c-0.955-2.283-2.198-4.435-3.698-6.404l3.662-2.79c1.737 2.28 3.177 4.773 4.283 7.418zm-10.655-13.79-2.79 3.6624c-0.975-0.7436-2.005-1.4299-3.084-2.0532l-4.5-2.5977 2.302-3.9869 4.5 2.5977c1.249 0.7216 2.441 1.5165 3.572 2.3777zm-17.544-10.444-2.302 3.9869-8.999-5.1954 2.302-3.9869zm-18.471-10.664-2.302 3.9869-8.999-5.1954 2.302-3.9869zm-18.471-10.664-2.302 3.9869-8.999-5.1954 2.302-3.9869zm-18.471-10.664-2.302 3.9869-8.999-5.1954 2.302-3.9869zm-18.472-10.664-2.301 3.9869-8.999-5.1954 2.302-3.9869zm-18.471-10.664-2.302 3.9869-8.998-5.1954 2.302-3.9869zm-18.471-10.664-2.302 3.9869-4.499-2.5977c-1.08-0.6233-2.189-1.1715-3.32-1.6448l1.777-4.247c1.311 0.5484 2.595 1.1834 3.845 1.9049zm-17.05-6.8349-0.585 4.5663c-2.454-0.3144-4.94-0.3144-7.394 0l-0.585-4.5663c2.843-0.3642 5.721-0.3642 8.564 0zm-17.27 2.3323 1.777 4.247c-1.131 0.4733-2.241 1.0215-3.32 1.6448l-4.499 2.5977-2.302-3.9869 4.499-2.5977c1.25-0.7215 2.534-1.3565 3.845-1.9049zm-17.817 9.9715 2.302 3.9869-8.999 5.1954-2.301-3.9869zm-18.471 10.664 2.302 3.9869-8.999 5.1954-2.301-3.9869zm-18.471 10.664 2.302 3.9869-8.999 5.1954-2.302-3.9869zm-18.471 10.664 2.302 3.9869-8.999 5.1954-2.302-3.9869zm-18.471 10.664 2.3018 3.9869-8.9987 5.1954-2.3018-3.9869zm-18.471 10.664 2.3018 3.9869-8.9987 5.1954-2.3018-3.9869zm-18.471 10.664 2.3018 3.9869-4.4993 2.5977c-1.0796 0.6233-2.1088 1.3096-3.0844 2.0532l-2.7898-3.6624c1.1304-0.8612 2.3226-1.6561 3.5723-2.3777zm-14.444 11.348 3.6621 2.79c-1.4996 1.969-2.7424 4.121-3.6973 6.404l-4.247-1.776c1.106-2.645 2.5454-5.138 4.2822-7.418zm319.04 36.538h-4.603v10.391h4.603zm0 21.329h-4.603v10.391h4.603zm0 21.329h-4.603v10.39h4.603zm0 21.328h-4.603v10.391h4.603zm0 21.329h-4.603v10.391h4.603zm0 21.328h-4.603v10.391h4.603zm0 21.329h-4.603v5.195c0 1.247-0.08 2.482-0.236 3.698l4.567 0.585c0.18-1.41 0.272-2.839 0.272-4.283zm-325.93-10.938h4.6036v-10.391h-4.6036zm0-21.328h4.6036v-10.391h-4.6036zm0-21.329h4.6036v-10.391h-4.6036zm0-21.329h4.6036v-10.39h-4.6036zm0-21.328h4.6036v-10.391h-4.6036zm0-21.329h4.6036v-10.391h-4.6036z" clip-rule="evenodd" fill="#492e98" fill-rule="evenodd"/>
 </g>
</svg>
